<svg xmlns="http://www.w3.org/2000/svg" xmlns:xlink="http://www.w3.org/1999/xlink" width="137.57142855622328" height="139.21428572188836" style="" xml:space="preserve" preserveAspectRatio="xMaxYMin meet">
<title>Video file</title>

<g>
	<g data-curve="file_8" style="opacity: 1; -ms-transform-origin: center center; -webkit-transform-origin: center center; transform-origin: center center;">
		<polyline style="fill:#DF4431;" points="78.19286346435547,0 13.392857551574707,0 13.392857551574707,139.99999564886093 123.39286041259766,139.99999564886093 123.39286041259766,24.999999463558197 98.39286041259766,0 78.19286346435547,0 "/>
		<polygon style="fill:#c31209;" points="98.39286041259766,24.999999463558197 123.39286041259766,49.9999994635582 123.39286041259766,24.999999463558197 "/>
		<polyline style="fill:#FB7659;" points="98.39286041259766,0 98.39286041259766,0 98.39286041259766,24.999999463558197 123.39286041259766,24.999999463558197 98.39286041259766,0 "/>
		<g>
			<g>
				<polygon style="fill: #FFFFFF;" points="44.7928581237793,51.9999994635582 35.39285659790039,51.9999994635582 35.39285659790039,45.9999994635582 42.49285888671875,45.9999994635582 "/>
				<polygon style="fill: #FFFFFF;" points="97.89286041259766,45.9999994635582 102.39286041259766,45.9999994635582 102.39286041259766,51.9999994635582 100.19286346435547,51.9999994635582 "/>
				<polygon style="fill: #FFFFFF;" points="57.7928581237793,51.9999994635582 48.2928581237793,51.9999994635582 45.992855072021484,45.9999994635582 55.39285659790039,45.9999994635582 "/>
				<polygon style="fill: #FFFFFF;" points="70.69285583496094,51.9999994635582 61.2928581237793,51.9999994635582 58.89285659790039,45.9999994635582 68.39286041259766,45.9999994635582 "/>
				<polygon style="fill: #FFFFFF;" points="83.69286346435547,51.9999994635582 74.29286193847656,51.9999994635582 71.89286041259766,45.9999994635582 81.39286041259766,45.9999994635582 "/>
				<polygon style="fill: #FFFFFF;" points="96.69286346435547,51.9999994635582 87.29286193847656,51.9999994635582 84.89286041259766,45.9999994635582 94.39286041259766,45.9999994635582 "/>
				<path style="fill: #FFFFFF;" d="M35.39285707473755,55 v40.8 h60.4 l6.6,-5.6 V55 H35.39285707473755 z" />
			</g>
			<rect x="40.39285707473755" y="61" style="fill:#DF4431;" width="56" height="4"/>
		</g>
	</g>
</g>
</svg>
